<?xml version="1.0" standalone="yes"?>
<svg xmlns="http://www.w3.org/2000/svg" width="1365" height="740">
<rect width="100%" height="100%" fill="#06152C"/>
<path style="fill:#FFFFFF; stroke:none;" d="M532 144L531.556 145.5L531.333 146.056L530.694 148L530.417 149L530.083 151L530 153L530 154L530.028 156L530.083 157L530.417 159L530.694 160L531.417 162L531.917 163L532.5 164L534.083 165.972L536 167.778L537 168.583L539 170L540 170.667L541 171.333L543 172.611L544 173.194L546 174.444L548 175.861L549 176.611L551 177.972L552 178.611L553 179.194L555 180.389L557 181.667L559 183L562 185L572 191.667L575 193.667L576 194.333L578 195.611L580 196.806L581 197.389L582 198.028L584 199.333L585 200L588 202L591 204L594 206L601 210.667L603 212L606 214L608 215.333L610 216.611L611 217.194L613 218.389L615 219.667L616 220.333L618 221.667L623 225L625 226.333L640 236.333L643 238.333L646 240.333L648 241.667L649 242.333L650 242.972L652 244.194L653 244.833L654 245.444L656 246.861L656.972 247.639L657.917 248.389L659.583 250.083L660.306 251.028L661.611 253L662.167 254L662.722 255L663.167 256L663.611 257L664.306 259L664.611 260L664.861 261L665.361 263L665.611 264L665.917 266L665.972 267L666 269L666 271L666 279L666 313L666 314L666 339L666 344L666 346L666 348L666.083 350L666.25 351L666.472 352L666.861 353L667.861 355L668.472 356L670.083 357.972L671.028 358.917L673 360.5L674 361.083L675 361.583L677 362.306L678 362.583L679.944 362.917L681.5 363L683 363L683 284L683 262L683 257L683 255L682.917 253L682.611 251L682.361 250L681.833 248L681.528 247L680.583 245L679.972 244L678.583 242L677.778 241L676.917 240L675 238.028L674 237.083L672 235.417L670 234L669 233.333L667 232L660 227.333L657 225.333L656 224.667L654 223.389L652 222.194L651 221.611L650 220.972L649 220.333L647 219L646 218.333L643 216.333L639 213.667L628 206.333L623 203L621 201.667L619 200.389L617 199.194L616 198.611L614 197.333L612 196L607 192.667L602 189.333L601 188.667L596 185.333L594 184L589 180.667L583 176.667L581 175.333L580 174.667L578 173.389L577 172.806L575 171.611L573 170.333L572 169.667L570 168.333L565 165L548 153.667L546 152.333L545 151.667L543 150.389L542 149.806L540 148.611L539 147.972L538 147.333L537 146.667L535.056 145.417L534.056 144.889L533.5 144.528L532 144M843 144L841.5 145.056L840.944 145.389L839.944 146.056L839 146.667L838 147.333L836 148.667L835 149.333L829 153.333L821 158.667L820 159.333L818 160.667L817 161.333L815 162.611L814 163.194L812 164.389L810 165.667L808 167L804 169.667L803 170.333L793 177L790 179L788 180.333L786 181.611L785 182.194L783 183.389L781 184.667L779 186L774 189.333L769 192.667L766 194.667L765 195.333L759 199.333L758 200L753 203.333L751 204.667L750 205.333L748 206.611L746 207.806L745 208.389L744 209.028L743 209.667L741 211L737 213.667L722 223.667L720 225L717 227L715 228.333L714 228.972L713 229.611L711 230.806L710 231.389L709 232.028L707 233.333L705 234.694L704 235.417L702 237.083L701 238.028L699.083 240L697.472 242L696.861 243L696.25 244L695.25 246L694.833 247L694.389 248L693.694 250L693.417 251L693.222 252L693.083 253L693 255L693 257L693 259L693 262L693 283L693 363L695.056 363L697 362.917L698 362.75L699 362.528L701 361.722L702 361.139L703 360.528L704.972 358.917L705.917 357.972L707.528 356L708.722 354L709.139 353L709.528 352L709.917 350L709.972 349L710 347L710 345L710 335L710 328L710 283L710 273L710 270L710 269L710.028 267L710.083 266L710.389 264L710.639 263L711.139 261L711.389 260L711.694 259L712.389 257L712.833 256L713.278 255L714.472 253L716.083 251L717.028 250L718 249.028L719 248.083L721 246.417L723 245L724 244.333L726 243L727 242.333L731 239.667L737 235.667L739 234.333L741 233L744 231L747 229L748 228.333L750 227.028L751 226.389L752 225.806L754 224.611L756 223.333L758 222L763 218.667L765 217.333L767 216L770 214L778 208.667L780 207.333L782 206L784 204.667L786 203.389L787 202.806L789 201.611L791 200.333L793 199L795 197.667L796 197L807 189.667L809 188.333L811 187L813 185.667L815 184.389L817 183.194L818 182.611L819 181.972L820 181.333L821 180.667L824 178.667L825 178L827 176.667L833 172.667L835 171.333L836 170.667L838 169.306L839 168.583L840.972 166.917L841.917 165.972L843.528 164L844.722 162L845.139 161L845.528 160L845.917 158L846 156L846 155L846 154L846 153L845.917 151L845.583 149L844.972 147.028L844.639 146.111L844.167 145.306L843.972 144.778L843 144M558 194L557.75 195.5L557.583 196.056L557.306 197.056L557 198L556.417 200L556.222 201L556.083 202L556.028 204L556.083 205L556.389 207L556.639 208L557.167 210L557.444 211L557.861 212L558.278 213L559.472 214.972L561.083 216.778L562.028 217.611L563 218.361L565 219.833L566 220.556L568 221.806L569 222.389L571 223.667L573 225L578 228.333L580 229.667L583 231.667L586 233.667L589 235.667L590 236.333L592 237.611L594 238.833L595 239.444L596 240.167L598 241.611L599 242.306L600 243L602 244.333L604 245.611L606 246.806L607 247.389L608 248.028L609 248.667L610 249.333L612 250.667L615 252.667L617 254L618 254.667L623 258L625 259.333L626 260L628 261.389L629 262.139L630 262.861L631.972 264.389L633.778 266.083L635.278 268L635.917 269L636.444 270L636.917 271L637.667 273L638 274L638.583 276L638.917 278L638.972 279L639 281L639 282L639 285L639 296L639 298L639 299L639.083 301L639.417 303L639.694 304L640.417 306L641.5 308L642.25 309L644.028 310.972L645 311.917L647 313.5L649 314.583L650 314.972L652 315.583L652.944 315.778L654.5 315.972L656 316L656 314.5L656 280L656 272L656 270L656 269L655.917 267L655.778 266L655.583 265L655.306 264L654.611 262L654.167 261L653.722 260L653.167 259L652.611 258L651.306 256.083L650.583 255.222L649.778 254.389L647.972 252.861L647 252.139L645 250.639L644 249.861L643 249.167L642 248.444L641 247.833L639 246.611L637 245.333L636 244.667L634 243.333L632 242L627 238.667L619 233.333L617 232L614 230L612 228.667L610 227.389L608 226.194L607 225.611L605 224.333L603 223L600 221L595 217.667L593 216.333L592 215.667L589 213.667L585 211L583 209.667L581 208.389L579 207.194L578 206.611L577 205.972L576 205.333L575 204.667L573 203.333L571 202L566 198.667L564 197.333L563 196.667L562 196.028L561.056 195.417L560.056 194.889L559.5 194.528L558 194M816 195L814.5 196.056L813.944 196.389L812 197.611L810 198.806L809 199.389L807 200.667L806 201.333L803 203.333L793 210L790 212L788 213.333L786 214.611L785 215.194L783 216.389L781 217.667L780 218.333L778 219.667L775 221.667L773 223L769 225.667L766 227.667L765 228.333L763 229.611L761 230.806L760 231.389L758 232.667L757 233.333L755 234.667L749 238.667L746 240.667L739 245.333L737 246.667L736 247.333L734 248.667L732 250L731 250.694L730 251.389L729.028 252.139L728.083 252.861L726.389 254.389L724.861 256.083L724.167 257.028L722.861 259L722.278 260L721.861 261L721.167 263L720.861 264L720.639 265L720.389 266L720.083 268L720.028 269L720 271L720 273L720 280L720 316L721.5 315.917L722.056 315.778L724 315.361L726 314.833L727 314.528L729 313.5L731 311.917L731.972 310.972L732.917 310L734.528 308L735.722 306L736.139 305L736.528 304L736.75 303L736.917 302L737 300L737 299L737 296L737 284L737 282L737 281L737 280L737.083 278L737.417 276L737.694 275L738.389 273L738.833 272L739.778 270L740.861 268L742.25 266.083L744.028 264.389L746 262.861L747 262.139L748 261.389L750 260L751 259.333L753 258L757 255.333L759 254L761 252.667L762 252.028L763 251.389L764 250.806L766 249.611L768 248.333L769 247.667L771 246.333L777 242.333L783 238.333L790 233.667L792 232.333L794 231L796 229.667L797 229.028L798 228.389L800 227.194L801 226.611L803 225.333L805 224L808 222L809 221.333L811 220L812 219.306L813 218.583L814.972 216.917L815.917 215.972L817.5 214L818.083 213L818.972 211L819.583 209L819.917 207L820 205L820 204L819.972 203L819.917 202L819.583 200L819.306 199L818.667 197.056L818.444 196.5L818 195L816 195M516 406L515 407.5L514.75 408.056L514.139 409.056L513.611 410L512.389 412L511.194 414L510.611 415L509.389 417L508.806 418L508.194 419L507.639 420L507.083 420.944L506.639 421.944L506.333 422.5L506 424L510 424L512 424L514 423.972L515 423.889L516 423.667L516.972 423.278L518.778 421.889L519.611 420.972L520.389 420L522 418L523.611 416L525.139 414L525.861 413L527.389 411L528.972 409.056L529.722 408.056L530.222 407.5L531 406L524 406L516 406M656 506L654.5 504.944L653.944 504.611L652 503.389L650 502.278L648.056 501.472L646.5 501.083L645 501L643.528 503.056L641.917 505L640 507L638 508.917L636 510.583L634 511.972L633 512.611L631 513.75L630 514.222L629 514.75L628 515.167L627 515.611L625 516.306L624 516.583L622 516.917L620 517.083L618 517.389L617 517.611L615 517.833L613 517.611L612 517.389L610 517.056L609 516.944L607 516.611L605 516.139L604 515.833L603 515.556L601 514.75L600 514.222L599 513.778L598 513.222L597 512.75L595 511.528L594 510.75L593 509.917L591 508L590 507L588.028 505L586.222 503L585.417 502L584.694 501L583.389 499L582.833 498L582.278 497L581.833 496L581.389 495L580.694 493L580.389 492L580.139 491L579.639 489L579.389 488L579.083 486L579.028 485L579 483L579 481L579 479L579.028 477L579.083 476L579.389 474L579.639 473L580.139 471L580.389 470L581.028 468L581.389 467L582.278 465L583.389 463L584.028 462L585.417 460L587.083 458L589 456L590 455L591 454L593 452.083L594 451.25L595 450.472L596 449.861L597 449.25L598 448.778L600 447.778L601 447.25L602 446.833L603 446.389L605 445.694L606 445.417L608 445.083L610 444.917L611 444.778L613 444.389L615 444.083L617 444.083L618 444.222L619 444.389L621 444.806L623 445.194L624 445.417L625 445.694L627 446.389L628 446.833L629 447.25L630 447.778L632 448.778L633 449.25L635 450.472L636 451.25L637 452.083L639 454L640 455L641.972 457L642.889 457.944L643.694 458.944L644.222 459.5L645 461L646.5 460.722L648.056 460.139L649 459.722L651 458.611L652.944 457.417L653.944 456.889L654.5 456.528L656 456L655.889 454.5L655.306 452.944L654.111 451L653.361 450L651.778 448L649.972 446L648 444.083L646 442.389L645 441.639L643 440.167L642 439.444L640 438.25L639 437.778L638 437.222L637 436.778L636 436.25L634 435.389L633 435.028L631 434.389L629 433.861L628 433.639L627 433.361L626 433.139L625 432.861L624 432.639L623 432.389L621 432.083L620 432.028L618 432L617 432L615 432L613 432L612 432.028L611 432.083L609 432.389L608 432.611L606 432.944L605 433.056L603 433.389L601 433.861L600 434.167L599 434.444L598 434.833L596 435.611L594 436.389L593 436.833L592 437.25L591 437.778L590 438.25L588 439.389L587 440.028L585 441.417L583 443.083L581 445L580 446L579 447L577.083 449L575.417 451L574.028 453L573.389 454L572.25 456L571.778 457L571.222 458L570.778 459L570.25 460L569.389 462L569.028 463L568.389 465L567.861 467L567.639 468L567.361 469L567.139 470L566.639 472L566.389 473L566.083 475L566.028 476L566 478L566 479L566 481L566 483L566 484L566.028 486L566.083 487L566.389 489L566.611 490L566.806 491L567.194 493L567.417 494L568 496L568.333 497L569.028 499L569.389 500L570.25 502L570.778 503L571.222 504L571.778 505L572.25 506L572.833 507L573.389 508L574.694 510L575.417 511L577.083 513L578.028 514L580 516L581 517L583 518.917L585 520.583L587 521.972L588 522.611L590 523.75L591 524.222L592 524.778L593 525.222L594 525.75L596 526.611L597 526.972L599 527.667L600 528L602 528.611L603 528.861L604 529.139L605 529.361L606 529.611L608 529.917L610 530L611 530L612 530L615 530L618 530L619 530L621 529.972L622 529.917L624 529.611L625 529.361L626 529.139L627 528.861L629 528.306L630 528L632 527.333L633 526.972L634 526.611L636 525.75L637 525.222L638 524.778L639 524.222L640 523.75L642 522.556L643 521.833L645 520.361L646 519.611L648 517.917L649 516.972L650.917 515L651.778 514L652.583 513L653.972 511L654.583 510L655.083 509.056L655.722 507.5L656 506M881 506L879.5 505L878.944 504.75L877 503.611L875 502.389L874 501.833L873.056 501.278L872.056 500.833L871.5 500.5L870 500L869.25 501.5L868.778 502.056L868.111 503.056L867.361 504L866.611 505L864.917 506.972L863.972 507.917L862 509.611L861 510.361L859 511.833L858 512.556L856 513.75L855 514.222L854 514.75L852 515.556L851 515.833L850 516.139L848 516.611L846 516.917L844 517.083L842 517.389L841 517.611L839 517.833L837 517.611L836 517.389L834 517.056L833 516.944L831 516.583L829 516L828 515.667L826 514.972L825 514.583L823 513.583L822 512.972L820 511.611L819 510.861L817 509.361L816 508.611L814.083 506.917L812.389 505L811.639 504L810.167 502L809.444 501L808.25 499L807.778 498L806.778 496L806.25 495L805.861 494L805.444 493L805.167 492L804.861 491L804.639 490L804.222 488L804.083 487L804 485L804 484L804 483L804 481L804 479L804 478L804.028 476L804.083 475L804.389 473L804.639 472L805.167 470L805.444 469L806.25 467L806.778 466L807.222 465L807.778 464L808.25 463L809.389 461L810.694 459L811.417 458L813.083 456L814.028 455.028L815 454.083L817 452.417L818 451.694L820 450.333L821 449.667L823 448.417L825 447.417L826 447.028L828 446.333L829 446L831 445.417L832 445.194L834 444.806L836 444.389L837 444.222L838 444.083L840 444.083L842 444.389L843 444.611L845 444.944L846 445.056L848 445.389L850 445.861L851 446.167L852 446.444L853 446.861L854 447.25L855 447.778L856 448.25L858 449.389L859 450.028L861 451.417L863 453.083L864 454.028L865 455L866.917 457L868.528 458.944L870 461L871.5 460.722L873.056 460.083L875 459L876 458.389L877 457.806L878.944 456.583L879.5 456.222L881 455L880.472 453.5L880.083 452.944L879.528 451.944L878.833 451L877.361 449L876.611 448L874.917 446.028L873.972 445.083L872 443.389L871 442.639L869 441.139L868 440.389L867 439.694L865 438.389L863 437.278L862 436.833L861 436.389L859 435.611L857 434.833L856 434.444L855 434.167L854 433.861L852 433.389L850 433.083L848 432.917L847 432.778L845 432.389L844 432.222L843 432.083L841 432L840 432L838 432L836 432L835 432.028L834 432.083L832 432.389L831 432.639L829 433.139L828 433.361L827 433.639L826 433.861L824 434.389L822 435.028L821 435.389L819 436.25L818 436.778L817 437.222L816 437.778L815 438.222L814 438.778L813 439.25L811 440.472L810 441.222L808 442.806L806.028 444.389L805.083 445.222L804.222 446.083L802.611 448L801 450L799.417 452L798.694 453L797.389 455L796.25 457L795.778 458L795.25 459L794.833 460L794.389 461L793.667 463L793 465L792.694 466L792.139 468L791.861 469L791.639 470L791.222 472L791.083 473L791 475L791 477L791 479L791 482L791 485L791 486L791 487L791.083 489L791.222 490L791.639 492L791.861 493L792.139 494L792.694 496L793 497L793.667 499L794.389 501L794.833 502L795.25 503L795.778 504L796.25 505L797.389 507L798.028 508L799.389 510L800.139 511L801.639 513L802.389 514L804.083 515.972L805.028 516.917L807 518.611L808 519.361L809 520.139L811 521.556L812 522.167L814 523.389L815 524L817 525.111L819 526L820 526.389L822 527.167L823 527.556L824 527.833L825 528.139L826 528.361L828 528.861L829 529.139L830 529.361L832 529.778L833 529.917L835 530L836 530L838 530L840 530L841 530L843 529.972L844 529.917L846 529.611L847 529.389L849 529.056L850 528.944L852 528.611L854 528.139L855 527.833L856 527.556L857 527.167L859 526.389L861 525.611L862 525.167L863 524.722L864 524.167L865 523.611L867 522.306L868 521.611L869 520.861L871 519.361L872 518.611L873.917 516.917L874.778 515.972L876.361 514L877.861 512L878.611 511L879.889 509.056L880.361 508.056L880.667 507.5L881 506M399 434L399 446L427 446L427 529L440 529L440 446L467 446L467 434L399 434M506 434L505.194 435.5L505.028 436.056L504.639 437.056L504.333 438L503.611 440L502.806 442L502.389 443L501.667 445L501.333 446L500.611 448L500.194 449L499.389 451L499.028 452L498.667 453L498.333 454L497.611 456L496.806 458L496.389 459L495.667 461L495.333 462L494.611 464L493.806 466L493.389 467L492.667 469L492.333 470L491.611 472L491.194 473L490.389 475L489.667 477L489.333 478L488.972 479L488.611 480L488.194 481L487.389 483L486.611 485L485.806 487L485.389 488L485.028 489L484.667 490L484.333 491L483.667 493L483.333 494L482.972 495L482.611 496L482.194 497L481.389 499L480.611 501L479.806 503L479.389 504L479.028 505L478.667 506L478.333 507L477.611 509L476.806 511L476.389 512L475.667 514L475.333 515L474.611 517L473.806 519L473.389 520L473.028 521L472.667 522L472 524L471.417 525.944L471.222 526.944L471.083 527.5L471 529L484 529L484.806 527.5L484.972 526.944L485.361 525.944L485.667 525L486.389 523L486.806 522L487.611 520L488.333 518L488.667 517L489.389 515L490.194 513L490.611 512L491.306 510.056L491.75 508.5L492 507L528 507L535 507L535.25 508.5L535.694 510.056L536.389 512L536.806 513L537.611 515L538.333 517L538.667 518L539.333 520L539.667 521L540.389 523L540.806 524L541.194 525L542 526.944L542.194 527.5L543 529L548 529L556 529L555.972 527.5L555.75 525.944L555.528 525L554.806 523L554.389 522L553.667 520L553.333 519L552.611 517L552.194 516L551.389 514L550.611 512L549.806 510L549.389 509L548.667 507L548.333 506L547.972 505L547.611 504L547.194 503L546.389 501L545.667 499L545.333 498L544.611 496L543.806 494L543.389 493L542.667 491L542.333 490L541.972 489L541.611 488L541.194 487L540.389 485L539.611 483L538.806 481L538.389 480L538.028 479L537.667 478L537.333 477L536.611 475L535.806 473L535.389 472L534.667 470L534.333 469L533.611 467L533.194 466L532.389 464L532.028 463L531.667 462L531.333 461L530.667 459L530.333 458L529.972 457L529.611 456L529.194 455L528.389 453L527.611 451L526.806 449L526.389 448L525.667 446L525.333 445L524.611 443L524.194 442L523.389 440L522.667 438L522.361 437.056L521.972 436.056L521.806 435.5L521 434L514 434L506 434M668 434L668 446L676 446L684 446L696 446L696 529L697.5 529L709 529L709 525L709 522L709 521L709 446L713 446L718 446L721 446L725 446L730 446L733 446L737 446L737 434L732 434L729 434L725 434L721 434L717 434L713 434L708 434L707 434L706 434L705 434L702 434L699 434L683 434L679 434L668 434M756 434L756 529L760 529L764 529L769 529L769 434L764 434L756 434M927 434L926.194 435.5L926.028 436.056L925.639 437.056L925.333 438L924.611 440L923.806 442L923.389 443L922.667 445L922.333 446L921.611 448L921.194 449L920.389 451L920.028 452L919.667 453L919.333 454L918.611 456L918.194 457L917.389 459L916.667 461L916.333 462L915.667 464L915.333 465L914.972 466L914.611 467L914.194 468L913.389 470L912.611 472L911.806 474L911.389 475L911.028 476L910.667 477L910.333 478L909.611 480L908.806 482L908.389 483L907.667 485L907.333 486L906.611 488L906.194 489L905.389 491L904.667 493L904.333 494L903.972 495L903.611 496L902.806 498L902.389 499L901.667 501L901.333 502L900.611 504L900.194 505L899.389 507L898.667 509L898.333 510L897.611 512L896.806 514L896.389 515L895.611 517L894.806 519L894.389 520L894.028 521L893.333 523L892.694 525L892.417 525.944L892.222 526.944L892.083 527.5L892 529L898 529L905 529L905.806 527.5L905.972 526.944L906.361 525.944L906.667 525L907.333 523L907.667 522L908.028 521L908.389 520L909.194 518L909.611 517L910.333 515L910.667 514L911.389 512L911.806 511L912.528 509.056L912.722 508.5L913 507L914.5 507L917 507L921 507L923 507L927 507L928 507L932 507L933 507L936 507L944 507L949 507L951 507L956 507L956.25 508.5L956.417 509.056L956.694 510.056L957.333 512L957.667 513L958.333 515L958.667 516L959.028 517L959.389 518L960.194 520L960.611 521L961.333 523L961.667 524L962.306 525.944L962.583 526.944L962.75 527.5L963 529L967 529L977 529L976.917 527.5L976.583 525.944L976.306 525L975.611 523L975.194 522L974.389 520L973.611 518L973.194 517L972.389 515L971.667 513L971.333 512L970.611 510L970.194 509L969.389 507L968.611 505L967.806 503L967.389 502L966.667 500L966.333 499L965.972 498L965.611 497L964.806 495L964.389 494L963.667 492L963.333 491L962.611 489L962.194 488L961.389 486L960.667 484L960.333 483L959.611 481L959.194 480L958.389 478L958.028 477L957.667 476L957.333 475L956.611 473L956.194 472L955.389 470L954.611 468L953.806 466L953.389 465L953.028 464L952.667 463L952.333 462L951.611 460L950.806 458L950.389 457L949.667 455L949.333 454L948.611 452L948.194 451L947.389 449L947.028 448L946.667 447L946.333 446L945.667 444L945.333 443L944.611 441L944.194 440L943.389 438L942.667 436.056L942.444 435.5L942 434L937 434L931 434L927 434M514 449L514.25 450.5L514.694 452.056L515.389 454L516.194 456L516.611 457L517.333 459L517.667 460L518.389 462L518.806 463L519.611 465L520.333 467L520.667 468L521.028 469L521.389 470L521.806 471L522.611 473L523.333 475L523.667 476L524.333 478L524.667 479L525.028 480L525.389 481L526.194 483L526.611 484L527.333 486L527.667 487L528.389 489L528.806 490L529.528 491.944L529.917 493.5L530 495L525 495L517 495L497 495L497.083 493.5L497.472 491.944L498.194 490L498.611 489L499.333 487L499.667 486L500.333 484L500.667 483L501.389 481L501.806 480L502.611 478L503.333 476L503.667 475L504.028 474L504.389 473L504.806 472L505.611 470L506.333 468L506.667 467L507.333 465L507.667 464L508.389 462L508.806 461L509.611 459L510.333 457L511 455L511.667 453L512.028 452.028L512.361 451.111L512.833 450.306L513.028 449.778L514 449M935 450L935.278 451.5L935.472 452.056L936.194 454L936.611 455L937.333 457L937.667 458L938.389 460L938.806 461L939.611 463L939.972 464L940.333 465L940.667 466L941.333 468L941.667 469L942.389 471L943.194 473L943.611 474L944.333 476L944.667 477L945.028 478L945.389 479L946.194 481L946.611 482L947.333 484L947.667 485L948.333 487L948.667 488L949.389 490L949.806 491L950.528 492.944L950.722 493.5L951 495L947 495L946 495L940 495L939 495L934 495L926 495L922 495L918 495L918.083 493.5L918.472 491.944L919.194 490L919.611 489L919.972 488L920.333 487L921 485L921.667 483L922.028 482L922.389 481L923.194 479L923.611 478L924.333 476L924.667 475L925.028 474L925.389 473L926.194 471L926.611 470L927.333 468L927.667 467L928.389 465L928.806 464L929.611 462L929.972 461L930.333 460L930.667 459L931.667 456L932 455L932.694 453.028L933.056 452.111L933.583 451.306L933.833 450.778L935 450M478 558L477.194 559.5L477.028 560.056L476.639 561.056L476.333 562L475.611 564L474.806 566L474.389 567L473.667 569L473.333 570L472.611 572L471.806 574L471.389 575L470.667 577L470.333 578L469.611 580L469.194 581L468.389 583L467.611 585L467.194 586L466.472 587.944L466.278 588.5L466 590L470 590L470.806 588.5L471 587.944L471.806 586L472.528 584.056L472.722 583.5L473 582L479 582L488 582L488.083 583.5L488.417 585.056L488.694 586L489.333 587.944L489.556 588.5L490 590L494 590L493.917 588.5L493.528 586.944L492.806 585L492.389 584L491.667 582L491.333 581L490.611 579L490.194 578L489.389 576L488.667 574L488.333 573L487.972 572L487.611 571L487.194 570L486.389 568L485.611 566L484.806 564L484.389 563L483.639 561.056L483.167 560.056L482.972 559.5L482 558L478 558M528 558L528 590L535 590L537 590L538 590L540 590L542 589.917L544 589.5L545 589.056L546.917 587.75L547.75 586.917L548.5 585.972L549.5 584L549.889 582L549.889 581L549.5 579L549.056 578L548.5 577.028L546.972 575.333L545.5 574.361L544 574L545.417 572.917L546.583 571.722L547.139 570.917L547.722 569.972L548.139 569L548.667 567L548.5 565L547.722 563.028L546.528 561.25L545.75 560.5L543.972 559.417L543 559.028L541 558.417L539 558.083L538 558.028L537 558L535 558L533 558L528 558M594 558.417L592 559.028L590 559.917L589 560.5L587.083 562.083L585.5 564L584.417 566L583.694 568L583.417 569L583.083 571L583 573L583 574L583 575L583.028 577L583.083 578L583.472 580L584.25 582L584.778 583L585.861 584.917L586.472 585.778L588.083 587.306L590 588.583L592 589.528L593 589.833L595 590.361L596 590.611L598 590.889L599 590.889L601 590.583L602 590.306L604 589.583L606 588.5L607.972 586.917L608.917 585.972L610.5 584L611.528 582L612.139 580L612.361 579L612.611 578L612.917 576L613 574L612.972 573L612.917 572L612.583 570L612.306 569L611.583 567L610.583 565L609.306 563.083L607.778 561.417L605.972 560.083L605 559.556L603 558.722L601 558.222L599 558.028L598 558L596 558.083L594 558.417M673 574L662 574L662 577L669 577L669 585L667.5 585.5L666.944 585.806L665 586.528L663 586.917L661 586.917L659 586.528L658 586.139L657 585.722L655.083 584.528L653.472 582.917L652.861 581.972L652.278 581L651.833 580L651.028 578L650.417 576L650.222 575L650.111 573L650.472 571L650.861 570L651.278 569L652.472 567L653.25 566.028L654.083 565.083L656 563.5L658 562.5L660 562.083L661 562.028L663 562.083L665 562.472L666 562.833L668 563.5L668.944 563.694L670.5 563.694L672 563L672 561L670.5 560.028L669.944 559.833L668.944 559.361L667 558.694L666 558.417L665 558.222L663 558.028L661 558L659 558.083L657 558.417L655 559.083L653 560.083L651.083 561.417L649.472 563.083L648.861 564.028L647.778 566L646.861 568L646.472 569L646.083 571L646 573L646 574L646.028 576L646.083 577L646.417 579L646.694 580L647.417 582L647.917 583L648.5 584L650.083 585.972L651.028 586.917L653 588.5L655 589.5L657 590L658 590.194L659 590.389L660 590.611L662 590.889L663 590.889L665 590.611L666 590.361L668 589.833L669 589.528L670.889 588.5L672.278 586.917L672.667 585.972L672.889 585L673 583L673 582L673 581L673 579L673 574M717 558L716.194 559.5L716 560.056L715.194 562L714.806 563L714.389 564L713.667 566L713.333 567L712.972 568L712.611 569L712.194 570L711.389 572L710.611 574L709.806 576L709.389 577L708.667 579L708.333 580L707.611 582L707.194 583L706.389 585L705.694 586.944L705.25 588.5L705 590L709 590L709.806 588.5L709.972 587.944L710.361 586.944L710.667 586L711.333 584.056L711.556 583.5L712 582L716 582L720 582L726 582L726.5 583.5L726.806 584.056L727.611 586L728.333 587.944L728.556 588.5L729 590L733 590L732.917 588.5L732.528 586.944L732.167 586L731.389 584L730.611 582L730.194 581L729.389 579L728.611 577L728.194 576L727.389 574L726.667 572L726.333 571L725.611 569L725.194 568L724.389 566L723.611 564L723.194 563L722.806 562L722 560.056L721.806 559.5L721 558L717 558M767 558L767 590L769.056 590L774 590L776 590L777 590L779 590L780 589.972L781 589.917L783 589.583L784 589.278L786 588.361L787.972 586.889L788.917 585.972L790.528 584L791.139 583L792.139 581L792.528 580L792.75 579L792.917 578L793 576L793 575L793 574L793 573L792.917 571L792.583 569L792.278 568L791.444 566L790.917 565L789.583 563.083L787.917 561.472L786.972 560.861L786 560.278L784 559.444L783 559.167L781 558.639L780 558.389L778 558.083L777 558.028L776 558L774 558L772 558L771 558L767 558M837 558.417L835 559.083L834 559.556L833.028 560.083L831.222 561.417L829.694 563.083L828.417 565L827.417 567L827.028 568L826.417 570L826.083 572L826.028 573L826.083 575L826.389 577L826.639 578L827.167 580L827.444 581L828.278 583L828.861 584L829.472 584.972L831.083 586.778L832.028 587.583L834 588.917L835 589.444L837 590.278L839 590.778L840 590.917L842 590.917L844 590.583L846 589.972L848 589.167L849 588.722L850.972 587.528L851.917 586.75L853.528 584.972L854.139 584L854.722 583L855.528 581L855.917 579L855.972 578L856 577L856 575L856 573L855.972 571L855.917 570L855.528 568L855.139 567L854.139 565L853.528 564L851.917 562.083L850 560.472L848 559.278L847 558.861L846 558.472L845 558.25L844 558.083L842 558L841 558L839 558.083L838 558.222L837 558.417M889 585L889 587L890.5 588L891.056 588.222L892.056 588.778L894 589.556L895 589.833L897 590.361L899 590.75L900 590.833L902 590.583L904 589.889L905 589.361L906.917 587.889L908.5 586L909.5 584L909.75 583L909.944 581L909.75 579L909.5 578L908.5 576.083L906.917 574.472L905 573.278L903 572.389L901 571.667L899 570.889L898 570.361L896.139 568.889L895.417 567.972L894.972 567L894.833 566L895.528 564.083L897.083 562.5L899 561.583L900 561.5L902 561.889L904 562.75L905.944 563.528L908 564L909 562L909 561L907.5 559.778L905.944 558.889L905 558.5L904 558.25L902 558.028L901 558L899 558.083L897 558.417L895 559.111L894.028 559.639L892.306 561.111L891.111 563L890.417 565L890.25 566L890.278 568L890.472 569L891.278 570.917L892.472 572.528L894.083 573.722L895.028 574.167L896 574.611L898 575.333L900 576.028L901.972 576.917L902.917 577.5L904.472 579.083L904.972 580.028L905.25 581L905.25 582L904.972 582.972L903.75 584.75L902.917 585.5L901 586.472L899 586.694L898 586.556L896 585.917L894 585.028L892.056 584.361L890.5 584.306L889 585M532 572L532 562L536 562L538 562L540 562.111L540.972 562.333L541.889 562.722L543.278 564.111L543.667 565.028L543.944 567L543.667 568.972L543.278 569.889L541.889 571.278L540.972 571.667L540 571.889L538 572L536 572L532 572M595 562.25L597 562.028L598 562L600 562.083L602 562.5L603.972 563.5L605.75 565.083L606.5 566.028L607.583 568L607.972 569L608.583 571L608.917 573L608.917 575L608.778 576L608.583 577L607.972 579L607.167 581L606.722 581.972L605.528 583.75L604.75 584.528L602.972 585.722L602 586.139L601 586.528L599 586.917L598 586.944L597 586.917L595 586.528L593 585.722L591.083 584.528L589.5 582.917L588.917 581.972L588.417 581L587.694 579L587.417 578L587.083 576L587 574L587.083 572L587.417 570L587.722 569L588.639 567L589.306 566.028L590.111 565.083L592 563.5L593 562.944L595 562.25M771 587L771 562L775 562L777 562L778 562L780 562.083L782 562.5L784 563.5L785.889 565.083L786.694 566.028L787.361 567L787.889 568L788.583 570L788.917 572L788.972 573L789 575L788.917 577L788.75 578L788.528 579L787.722 581L786.528 582.917L784.917 584.5L783.972 585.083L782 585.972L780 586.583L779 586.778L778 586.917L776 587L775 587L774.056 587L771 587M838 562.25L840 562.028L841 562L843 562.028L844 562.111L845 562.306L846 562.639L846.972 563.111L847.917 563.722L849.528 565.222L850.139 566.083L850.722 567.028L851.528 569L851.917 571L851.972 572L852 574L852 575L851.917 577L851.583 579L850.889 581L849.694 582.972L847.972 584.694L847 585.361L846 585.889L844 586.583L842 586.917L840 586.917L839 586.75L838 586.5L837 586.056L835.028 584.75L834.083 583.917L832.5 582L831.5 580L831.25 579L831.028 577L831 575L831 573L831.083 571L831.25 570L831.472 569L832.278 567L833.472 565.083L835.083 563.5L836.028 562.944L838 562.25M481 564L481.278 565.5L481.472 566.056L482.194 568L482.611 569L483.333 571L483.667 572L484.389 574L484.806 575L485.528 576.944L485.722 577.5L486 579L475 579L475.083 577.5L475.222 576.944L475.417 575.944L476 574L476.333 573L477.028 571L477.389 570L477.806 569L478.639 567.028L479.028 566.111L479.583 565.306L479.833 564.778L481 564M719 564L719.806 564.778L720 565.306L720.417 566.111L721.194 568L721.611 569L722.333 571L722.667 572L723.389 574L723.806 575L724.528 576.944L724.722 577.5L725 579L714 579L714.028 577.5L714.25 575.944L714.472 575L715.194 573L715.611 572L716.333 570L716.667 569L717.333 567.028L717.639 566.111L718.028 565.306L718.194 564.778L719 564M532 587L532 575L536 575L538 575.028L539 575.083L541 575.5L541.972 575.944L542.889 576.5L544.278 578.083L544.889 580L544.889 582L544.278 583.917L543.667 584.75L542.889 585.5L541 586.5L540 586.75L539 586.917L537 587L535.056 587L532 587z"/>
</svg>
